<svg xmlns="http://www.w3.org/2000/svg" width="48" height="48" viewBox="0 0 48 48" fill="none"><rect width="48" height="48" rx="12" fill="#F9F5FF"></rect><g clip-path="url(#clip0_148_10044)"><path d="M31.2729 14H16.7273C15.2211 14 14 15.2211 14 16.7273V31.2729C14 32.7791 15.2211 34.0002 16.7273 34.0002H31.2729C32.7791 34.0002 34.0002 32.7791 34.0002 31.2729V16.7273C34.0002 15.2211 32.7791 14 31.2729 14Z" fill="url(#paint0_linear_148_10044)"></path><path d="M21.204 19.4546C21.204 19.7917 21.1041 20.1213 20.9168 20.4016C20.7295 20.6819 20.4633 20.9004 20.1518 21.0294C19.8403 21.1584 19.4976 21.1921 19.1669 21.1264C18.8363 21.0606 18.5326 20.8983 18.2942 20.6599C18.0558 20.4215 17.8934 20.1178 17.8277 19.7871C17.7619 19.4565 17.7957 19.1137 17.9247 18.8023C18.0537 18.4908 18.2722 18.2246 18.5525 18.0373C18.8328 17.85 19.1624 17.75 19.4995 17.75C19.9516 17.75 20.3851 17.9296 20.7048 18.2493C21.0245 18.5689 21.204 19.0025 21.204 19.4546Z" fill="white"></path><path d="M20.8167 22.2958V29.8265C20.817 29.8821 20.8063 29.9371 20.7853 29.9886C20.7642 30.04 20.7332 30.0867 20.694 30.1261C20.6549 30.1655 20.6083 30.1968 20.557 30.2181C20.5057 30.2394 20.4507 30.2504 20.3951 30.2504H18.5985C18.543 30.2505 18.4879 30.2397 18.4366 30.2185C18.3852 30.1973 18.3385 30.1662 18.2993 30.1269C18.26 30.0876 18.2288 30.041 18.2077 29.9896C18.1865 29.9383 18.1756 29.8832 18.1758 29.8277V22.2958C18.1758 22.1837 18.2203 22.0761 18.2996 21.9969C18.3789 21.9176 18.4864 21.873 18.5985 21.873H20.3951C20.507 21.8733 20.6143 21.918 20.6933 21.9973C20.7723 22.0765 20.8167 22.1839 20.8167 22.2958Z" fill="white"></path><path d="M30.2071 26.2163V29.8618C30.2072 29.9128 30.1973 29.9634 30.1778 30.0107C30.1583 30.0579 30.1297 30.1008 30.0936 30.1369C30.0575 30.173 30.0146 30.2016 29.9673 30.2211C29.9201 30.2406 29.8695 30.2505 29.8184 30.2504H27.8866C27.8355 30.2505 27.7849 30.2406 27.7377 30.2211C27.6905 30.2016 27.6476 30.173 27.6115 30.1369C27.5753 30.1008 27.5467 30.0579 27.5272 30.0107C27.5078 29.9634 27.4978 29.9128 27.498 29.8618V26.3288C27.498 25.8015 27.6525 24.0197 26.1195 24.0197C24.932 24.0197 24.69 25.239 24.6422 25.7867V29.8618C24.6423 29.9639 24.6021 30.0619 24.5304 30.1346C24.4588 30.2073 24.3614 30.2489 24.2593 30.2504H22.3934C22.3424 30.2504 22.2919 30.2403 22.2448 30.2208C22.1977 30.2012 22.155 30.1726 22.119 30.1365C22.083 30.1004 22.0544 30.0575 22.035 30.0104C22.0156 29.9633 22.0057 29.9127 22.0059 29.8618V22.2628C22.0057 22.2118 22.0156 22.1613 22.035 22.1142C22.0544 22.067 22.083 22.0242 22.119 21.9881C22.155 21.952 22.1977 21.9233 22.2448 21.9038C22.2919 21.8842 22.3424 21.8742 22.3934 21.8742H24.2593C24.3624 21.8742 24.4612 21.9151 24.5341 21.988C24.607 22.0609 24.6479 22.1598 24.6479 22.2628V22.9196C25.0888 22.2583 25.7423 21.748 27.1366 21.748C30.2253 21.748 30.2071 24.6322 30.2071 26.2163Z" fill="white"></path></g><defs><linearGradient id="paint0_linear_148_10044" x1="13.1321" y1="15.847" x2="36.1618" y2="27.9021" gradientUnits="userSpaceOnUse"><stop stop-color="#0050FF"></stop><stop offset="0.84" stop-color="#9000FF"></stop><stop offset="1" stop-color="#B61CD4"></stop></linearGradient><clipPath id="clip0_148_10044"><rect width="20" height="20" fill="white" transform="translate(14 14)"></rect></clipPath></defs></svg>