<svg xmlns="http://www.w3.org/2000/svg" width="131" height="28" viewBox="0 0 131 28" fill="none"><path d="M53.8342 23.331L53.8106 13.7469L49.1113 21.6409H47.4448L42.7658 13.9527V23.331H39.2978V7.35754H42.3542L48.332 17.2824L54.2188 7.35754H57.2516L57.2988 23.3277H53.8308L53.8342 23.331Z" fill="#091668"></path><path d="M70.172 12.2289C71.1908 13.133 71.7002 14.4993 71.7002 16.3243V23.3277H68.3672V21.7995C67.6993 22.9397 66.4511 23.5099 64.626 23.5099C63.6814 23.5099 62.8651 23.3513 62.1735 23.0308C61.4819 22.7103 60.9523 22.2718 60.588 21.7084C60.2236 21.145 60.0414 20.5075 60.0414 19.7923C60.0414 18.652 60.4699 17.7547 61.3301 17.1002C62.1904 16.4458 63.5161 16.1185 65.3108 16.1185H68.1412C68.1412 15.3426 67.9051 14.7455 67.4328 14.3272C66.9605 13.9089 66.2554 13.6997 65.3108 13.6997C64.6564 13.6997 64.012 13.801 63.3846 14.0067C62.7537 14.2125 62.2173 14.4891 61.7754 14.84L60.4969 12.3537C61.1648 11.8814 61.9677 11.5171 62.9055 11.2573C63.84 10.9976 64.8014 10.8694 65.7899 10.8694C67.6925 10.8694 69.1499 11.3214 70.172 12.2255V12.2289ZM67.1359 20.6964C67.6082 20.4164 67.9422 20.0014 68.1412 19.4516V18.1966H65.6988C64.2381 18.1966 63.5094 18.6756 63.5094 19.6337C63.5094 20.0891 63.6882 20.4501 64.0458 20.7166C64.4034 20.9831 64.8925 21.1147 65.5166 21.1147C66.1407 21.1147 66.6636 20.973 67.1359 20.693V20.6964Z" fill="#091668"></path><path d="M86.8742 11.0549L81.3282 24.0833C80.7648 25.4968 80.0699 26.4954 79.24 27.0722C78.4101 27.6491 77.4115 27.9392 76.2409 27.9392C75.6034 27.9392 74.9691 27.8414 74.3484 27.6424C73.7243 27.4433 73.2149 27.1701 72.8202 26.8192L74.1224 24.2857C74.3956 24.5286 74.7128 24.7209 75.0703 24.8559C75.4279 24.9942 75.7821 25.0616 76.1296 25.0616C76.6154 25.0616 77.0135 24.9436 77.3171 24.7074C77.6207 24.4713 77.894 24.0799 78.1402 23.5334L78.1841 23.4187L72.8674 11.0515H76.5412L79.9855 19.3807L83.4535 11.0515H86.8776L86.8742 11.0549Z" fill="#091668"></path><path d="M97.2544 12.2289C98.2732 13.133 98.7826 14.4993 98.7826 16.3243V23.3277H95.4496V21.7995C94.7817 22.9397 93.5335 23.5099 91.7084 23.5099C90.7638 23.5099 89.9474 23.3513 89.2559 23.0308C88.5643 22.7103 88.0347 22.2718 87.6703 21.7084C87.306 21.145 87.1238 20.5075 87.1238 19.7923C87.1238 18.652 87.5523 17.7547 88.4125 17.1002C89.2727 16.4458 90.5985 16.1185 92.3932 16.1185H95.2236C95.2236 15.3426 94.9875 14.7455 94.5152 14.3272C94.0429 13.9089 93.3378 13.6997 92.3932 13.6997C91.7388 13.6997 91.0944 13.801 90.467 14.0067C89.8361 14.2125 89.2997 14.4891 88.8578 14.84L87.5793 12.3537C88.2472 11.8814 89.0501 11.5171 89.9879 11.2573C90.9224 10.9976 91.8838 10.8694 92.8723 10.8694C94.7749 10.8694 96.2323 11.3214 97.2544 12.2255V12.2289ZM94.2183 20.6964C94.6906 20.4164 95.0246 20.0014 95.2236 19.4516V18.1966H92.7812C91.3205 18.1966 90.5918 18.6756 90.5918 19.6337C90.5918 20.0891 90.7706 20.4501 91.1282 20.7166C91.4858 20.9831 91.9749 21.1147 92.599 21.1147C93.2231 21.1147 93.746 20.973 94.2183 20.693V20.6964Z" fill="#091668"></path><path d="M119.226 19.907H111.811L110.398 23.3311H106.609L113.727 7.36096H117.377L124.519 23.3311H120.639L119.226 19.907ZM118.062 17.1002L115.529 10.9841L112.995 17.1002H118.062Z" fill="#091668"></path><path d="M126.186 7.35754H129.883V23.3277H126.186V7.35754Z" fill="#091668"></path><path d="M0.789398 4.60819C-0.263133 3.55229 -0.263133 1.8453 0.789398 0.789398C1.31566 0.263133 2.00723 0 2.6988 0C3.33301 0 3.9706 0.222651 4.47663 0.671325C4.52386 0.715181 4.68916 0.887229 4.72964 0.924337C7.16193 3.2959 10.4848 4.76 14.1484 4.76C20.2578 4.76 23.7966 0.69494 23.8202 0.671325C24.3027 0.199036 24.9639 0 25.5981 0C26.2896 0 26.9812 0.263133 27.5075 0.789398C28.0337 1.31566 28.2969 2.00723 28.2969 2.6988C28.2969 3.83229 27.5345 4.57783 27.5041 4.61157C24.0834 8.02892 19.3639 10.1576 14.1484 10.1576C5.7653 10.1576 0.792771 4.61157 0.789398 4.60819ZM2.6988 10.1407C1.20771 10.1407 0 11.3484 0 12.8395V20.9359C0 22.427 1.20771 23.6347 2.6988 23.6347C4.18988 23.6347 5.39759 22.427 5.39759 20.9359V12.8395C5.39759 11.3484 4.18988 10.1407 2.6988 10.1407ZM14.1484 12.8395C12.6573 12.8395 11.4496 14.0472 11.4496 15.5383V20.9359C11.4496 22.427 12.6573 23.6347 14.1484 23.6347C15.6395 23.6347 16.8472 22.427 16.8472 20.9359V15.5383C16.8472 14.0472 15.6395 12.8395 14.1484 12.8395ZM25.5981 10.1407C24.107 10.1407 22.8993 11.3484 22.8993 12.8395V20.9359C22.8993 22.427 24.107 23.6347 25.5981 23.6347C27.0892 23.6347 28.2969 22.427 28.2969 20.9359V12.8395C28.2969 11.3484 27.0892 10.1407 25.5981 10.1407Z" fill="url(#paint0_linear_1643_1368)"></path><defs><linearGradient id="paint0_linear_1643_1368" x1="-1.22795" y1="2.17928" x2="28.4858" y2="20.801" gradientUnits="userSpaceOnUse"><stop stop-color="#0050FF"></stop><stop offset="0.84" stop-color="#9000FF"></stop><stop offset="1" stop-color="#B61CD4"></stop></linearGradient></defs></svg>