<svg width="20" height="20" viewBox="0 0 20 20" fill="none" xmlns="http://www.w3.org/2000/svg">
<g clip-path="url(#clip0_3524_4715)">
<path d="M17.2729 0H2.7273C1.22105 0 0 1.22105 0 2.7273V17.2729C0 18.7791 1.22105 20.0002 2.7273 20.0002H17.2729C18.7791 20.0002 20.0002 18.7791 20.0002 17.2729V2.7273C20.0002 1.22105 18.7791 0 17.2729 0Z" fill="url(#paint0_linear_3524_4715)"/>
<path d="M7.20404 5.45456C7.20404 5.79169 7.10407 6.12125 6.91677 6.40156C6.72947 6.68188 6.46326 6.90036 6.15179 7.02937C5.84032 7.15838 5.49759 7.19214 5.16694 7.12637C4.83629 7.0606 4.53256 6.89825 4.29418 6.65987C4.05579 6.42148 3.89345 6.11776 3.82768 5.7871C3.7619 5.45645 3.79566 5.11372 3.92467 4.80225C4.05369 4.49079 4.27217 4.22457 4.55248 4.03727C4.83279 3.84997 5.16235 3.75 5.49948 3.75C5.95156 3.75 6.38512 3.92959 6.70479 4.24925C7.02446 4.56892 7.20404 5.00248 7.20404 5.45456Z" fill="white"/>
<path d="M6.81672 8.29578V15.8265C6.81702 15.8821 6.80633 15.9372 6.78528 15.9886C6.76423 16.04 6.73322 16.0867 6.69404 16.1261C6.65486 16.1655 6.60828 16.1968 6.55699 16.2181C6.50569 16.2394 6.45068 16.2504 6.39512 16.2504H4.59851C4.54296 16.2505 4.48792 16.2397 4.43656 16.2185C4.38521 16.1973 4.33855 16.1662 4.29926 16.1269C4.25998 16.0876 4.22885 16.041 4.20766 15.9896C4.18647 15.9383 4.17563 15.8832 4.17578 15.8277V8.29578C4.17578 8.18366 4.22032 8.07614 4.2996 7.99686C4.37888 7.91758 4.4864 7.87305 4.59851 7.87305H6.39512C6.50704 7.87335 6.61427 7.91802 6.6933 7.99726C6.77233 8.07651 6.81672 8.18386 6.81672 8.29578Z" fill="white"/>
<path d="M16.2071 12.2163V15.8618C16.2072 15.9128 16.1973 15.9634 16.1778 16.0107C16.1583 16.0579 16.1297 16.1008 16.0936 16.1369C16.0575 16.173 16.0146 16.2016 15.9673 16.2211C15.9201 16.2406 15.8695 16.2505 15.8184 16.2504H13.8866C13.8355 16.2505 13.7849 16.2406 13.7377 16.2211C13.6905 16.2016 13.6476 16.173 13.6115 16.1369C13.5753 16.1008 13.5467 16.0579 13.5272 16.0107C13.5078 15.9634 13.4978 15.9128 13.498 15.8618V12.3288C13.498 11.8015 13.6525 10.0197 12.1195 10.0197C10.932 10.0197 10.69 11.239 10.6422 11.7867V15.8618C10.6423 15.9639 10.6021 16.0619 10.5304 16.1346C10.4588 16.2073 10.3614 16.2489 10.2593 16.2504H8.39336C8.34238 16.2504 8.2919 16.2403 8.24481 16.2208C8.19772 16.2012 8.15495 16.1726 8.11896 16.1365C8.08296 16.1004 8.05444 16.0575 8.03503 16.0104C8.01562 15.9633 8.00571 15.9127 8.00586 15.8618V8.26282C8.00571 8.21184 8.01562 8.16133 8.03503 8.11418C8.05444 8.06704 8.08296 8.02419 8.11896 7.98808C8.15495 7.95198 8.19772 7.92333 8.24481 7.90379C8.2919 7.88424 8.34238 7.87418 8.39336 7.87418H10.2593C10.3624 7.87418 10.4612 7.91513 10.5341 7.98801C10.607 8.0609 10.6479 8.15975 10.6479 8.26282V8.91965C11.0888 8.25828 11.7423 7.74805 13.1366 7.74805C16.2253 7.74805 16.2071 10.6322 16.2071 12.2163Z" fill="white"/>
</g>
<defs>
<linearGradient id="paint0_linear_3524_4715" x1="-0.867914" y1="1.847" x2="22.1618" y2="13.9021" gradientUnits="userSpaceOnUse">
<stop stop-color="#0050FF"/>
<stop offset="0.84" stop-color="#9000FF"/>
<stop offset="1" stop-color="#B61CD4"/>
</linearGradient>
<clipPath id="clip0_3524_4715">
<rect width="20" height="20" fill="white"/>
</clipPath>
</defs>
</svg>
